:SAMPLES-PER-SECOND 30
:FULLY-SPECIFIED
:DEGREES
175
root  -3.39455 40.7603 0.820414 173.152 -80.3645 -171.021
RightUpLeg  -0.548162 -0.641474 -1.01574
RightLeg  1.98002 -11.6693 -0.107047
RightFoot  -1.51079 -0.320399 3.60324
RightToes  -3.11842e-008 1.75238e-005 3.56266e-009
Spine  4.27343 -7.67265 -17.0732
Spine1  5.05052 -11.6422 15.9334
HEad  -13.8061 27.6465 -10.6643
LeftShoulder1  2.77457 -8.83922 -15.7079
LeftArm  72.2967 -56.0921 -125.104
LeftForeArm  78.4604 -62.3995 -14.2303
LeftHand  -2.14867 -3.9954 26.4307
RightShoulder  4.10149 8.83189 27.241
RightArm  -70.2023 42.3191 27.5708
RightForeArm  115.435 64.7759 153.6
RightHand  -1.74501 9.16624 -14.2066
LeftUpLeg  -0.493093 2.80131 3.24606
LeftLeg  5.10451 21.0542 0.683747
LeftFoot  -4.30665 0.116072 -1.42214
LeftToes  4.7713e-008 1.46693e-008 1.32589e-009
176
root  -3.32299 40.7644 0.890009 173.674 -80.5663 -171.134
RightUpLeg  -1.13012 -0.61181 -1.14372
RightLeg  2.01293 -11.8846 -0.137971
RightFoot  -1.3361 -0.329945 3.66201
RightToes  -3.11842e-008 1.75238e-005 3.56266e-009
Spine  5.33806 -7.423 -17.7194
Spine1  3.90351 -11.7031 17.4977
HEad  -13.312 26.9178 -10.6147
LeftShoulder1  2.87793 -9.29327 -15.7142
LeftArm  74.1643 -55.5562 -125.263
LeftForeArm  78.9524 -61.8581 -13.8305
LeftHand  -2.22241 -4.20816 26.7372
RightShoulder  4.27322 9.17466 27.7179
RightArm  -72.6308 41.2836 28.2305
RightForeArm  114.429 64.1893 154.17
RightHand  -1.42286 7.08034 -13.5245
LeftUpLeg  -1.10414 2.59717 3.05423
LeftLeg  5.07062 21.0982 0.686335
LeftFoot  -4.09258 0.101002 -1.17333
LeftToes  4.7713e-008 1.46693e-008 1.32589e-009
177
root  -3.19897 40.7788 0.95768 174.665 -81.2246 -171.553
RightUpLeg  -1.90314 -0.50451 -1.29341
RightLeg  1.99916 -12.7063 -0.305524
RightFoot  -1.07356 -0.358982 3.91122
RightToes  -3.11842e-008 1.75238e-005 3.56266e-009
Spine  6.22637 -6.89532 -18.6015
Spine1  3.42666 -11.7011 19.6836
HEad  -13.6505 25.8207 -11.3245
LeftShoulder1  2.75123 -8.88408 -15.4113
LeftArm  75.3961 -55.2632 -126.03
LeftForeArm  80.6101 -61.1398 -13.263
LeftHand  -2.3358 -4.87202 26.2833
RightShoulder  4.34482 9.17594 28.2841
RightArm  -74.152 41.5279 29.5087
RightForeArm  114.667 64.0972 154.289
RightHand  -1.57022 7.94091 -13.9316
LeftUpLeg  -1.90579 2.28805 2.77538
LeftLeg  4.71147 20.8358 0.512646
LeftFoot  -3.65518 0.0811718 -0.871538
LeftToes  4.7713e-008 1.46693e-008 1.32589e-009
178
root  -3.04843 40.7946 1.01935 175.616 -82.661 -171.996
RightUpLeg  -2.53131 -0.694618 -1.63038
RightLeg  1.95915 -13.9193 -0.324894
RightFoot  -0.873434 -0.367237 3.94541
RightToes  -3.11842e-008 1.75238e-005 3.56266e-009
Spine  7.0591 -6.38497 -18.7277
Spine1  3.24348 -11.5358 20.8592
HEad  -14.3252 24.4854 -11.8063
LeftShoulder1  2.6682 -8.65493 -15.12
LeftArm  76.4399 -55.3266 -125.805
LeftForeArm  79.9041 -60.3115 -12.7917
LeftHand  -1.9805 -3.52218 25.6961
RightShoulder  4.72542 9.84018 29.4674
RightArm  -75.5592 41.5066 30.1097
RightForeArm  113.194 64.3268 153.918
RightHand  -1.90067 9.23551 -15.3512
LeftUpLeg  -2.88333 1.8013 2.37537
LeftLeg  4.53336 19.9543 0.44036
LeftFoot  -3.08509 0.052618 -0.470882
LeftToes  4.7713e-008 1.46693e-008 1.32589e-009
179
root  -2.85661 40.7929 1.07143 178.354 -84.8927 -174.123
RightUpLeg  -3.3804 -1.08382 -2.04036
RightLeg  2.29506 -15.6895 -0.343395
RightFoot  -0.893018 -0.372853 4.02064
RightToes  -3.11842e-008 1.75238e-005 3.56266e-009
Spine  8.25988 -5.65487 -18.0377
Spine1  2.37379 -10.9319 21.5943
HEad  -14.959 21.8497 -12.0459
LeftShoulder1  2.61505 -8.50433 -14.9317
LeftArm  76.758 -55.3087 -125.52
LeftForeArm  79.6513 -59.0099 -12.034
LeftHand  -2.05905 -3.93229 25.5566
RightShoulder  4.90432 10.0301 30.3072
RightArm  -76.6405 41.6065 31.7781
RightForeArm  110.942 64.8625 153.123
RightHand  -1.98366 9.23327 -16.0462
LeftUpLeg  -3.91788 1.26084 1.99411
LeftLeg  3.93587 18.3932 0.124393
LeftFoot  -2.4896 0.00685701 0.103228
LeftToes  4.7713e-008 1.46693e-008 1.32589e-009
